<svg width="135" height="15" viewBox="0 0 135 15" fill="none" xmlns="http://www.w3.org/2000/svg">
<path d="M1.86 2.39C1.61 2.39 1.4 2.305 1.23 2.135C1.06 1.965 0.975 1.755 0.975 1.505C0.975 1.255 1.06 1.045 1.23 0.875C1.4 0.705 1.61 0.62 1.86 0.62C2.12 0.62 2.335 0.705 2.505 0.875C2.685 1.045 2.775 1.255 2.775 1.505C2.775 1.755 2.685 1.965 2.505 2.135C2.335 2.305 2.12 2.39 1.86 2.39ZM1.095 3.8H2.64V11H1.095V3.8ZM4.725 3.8H6.165V4.835C6.505 4.415 6.89 4.1 7.32 3.89C7.75 3.68 8.195 3.575 8.655 3.575C9.235 3.575 9.695 3.675 10.035 3.875C10.375 4.065 10.625 4.36 10.785 4.76C11.105 4.37 11.495 4.075 11.955 3.875C12.425 3.675 12.895 3.575 13.365 3.575C14.245 3.575 14.88 3.8 15.27 4.25C15.66 4.69 15.855 5.345 15.855 6.215V11H14.385V6.41C14.385 5.82 14.275 5.405 14.055 5.165C13.835 4.915 13.46 4.79 12.93 4.79C12.17 4.79 11.55 5.12 11.07 5.78C11.09 5.93 11.1 6.175 11.1 6.515V11H9.63V6.41C9.63 5.82 9.53 5.405 9.33 5.165C9.13 4.915 8.77 4.79 8.25 4.79C7.49 4.79 6.81 5.22 6.21 6.08V11H4.725V3.8ZM20.0931 11.225C19.2231 11.225 18.5231 11.005 17.9931 10.565C17.4731 10.115 17.2131 9.51 17.2131 8.75C17.2131 7.95 17.4631 7.335 17.9631 6.905C18.4731 6.465 19.1931 6.245 20.1231 6.245C21.1131 6.245 21.9531 6.445 22.6431 6.845V6.47C22.6431 5.9 22.4681 5.48 22.1181 5.21C21.7781 4.93 21.2381 4.79 20.4981 4.79C20.0581 4.79 19.6281 4.835 19.2081 4.925C18.7981 5.005 18.4281 5.12 18.0981 5.27V4.04C18.3981 3.9 18.7881 3.79 19.2681 3.71C19.7481 3.62 20.2131 3.575 20.6631 3.575C21.8531 3.575 22.7331 3.84 23.3031 4.37C23.8831 4.89 24.1731 5.615 24.1731 6.545V11H22.7481V10.19C22.4381 10.53 22.0681 10.79 21.6381 10.97C21.2181 11.14 20.7031 11.225 20.0931 11.225ZM20.4681 10.07C20.9481 10.07 21.3831 9.975 21.7731 9.785C22.1631 9.595 22.4531 9.33 22.6431 8.99V8.015C21.9931 7.595 21.2681 7.385 20.4681 7.385C19.8881 7.385 19.4531 7.5 19.1631 7.73C18.8831 7.95 18.7431 8.29 18.7431 8.75C18.7431 9.63 19.3181 10.07 20.4681 10.07ZM29.8181 14.45C29.3281 14.45 28.8481 14.41 28.3781 14.33C27.9181 14.25 27.5281 14.135 27.2081 13.985V12.74C27.9581 13.08 28.8281 13.25 29.8181 13.25C30.7481 13.25 31.4231 13.045 31.8431 12.635C32.2731 12.235 32.4881 11.625 32.4881 10.805V10.04C31.8281 10.83 30.8581 11.225 29.5781 11.225C28.8481 11.225 28.1931 11.065 27.6131 10.745C27.0331 10.425 26.5781 9.975 26.2481 9.395C25.9181 8.815 25.7531 8.15 25.7531 7.4C25.7531 6.64 25.9131 5.975 26.2331 5.405C26.5631 4.825 27.0131 4.375 27.5831 4.055C28.1631 3.735 28.8131 3.575 29.5331 3.575C30.2031 3.575 30.7681 3.675 31.2281 3.875C31.6981 4.065 32.1331 4.385 32.5331 4.835V3.8H34.0031V10.64C34.0031 11.87 33.6581 12.81 32.9681 13.46C32.2881 14.12 31.2381 14.45 29.8181 14.45ZM29.8781 10.025C30.4981 10.025 31.0431 9.86 31.5131 9.53C31.9931 9.2 32.3181 8.76 32.4881 8.21V6.59C32.2981 6.03 31.9681 5.59 31.4981 5.27C31.0381 4.95 30.4981 4.79 29.8781 4.79C29.3881 4.79 28.9431 4.9 28.5431 5.12C28.1531 5.33 27.8431 5.635 27.6131 6.035C27.3931 6.435 27.2831 6.89 27.2831 7.4C27.2831 7.92 27.3931 8.38 27.6131 8.78C27.8431 9.17 28.1531 9.475 28.5431 9.695C28.9431 9.915 29.3881 10.025 29.8781 10.025ZM39.9155 11.225C38.5855 11.225 37.5405 10.895 36.7805 10.235C36.0305 9.565 35.6555 8.625 35.6555 7.415C35.6555 6.235 35.9905 5.3 36.6605 4.61C37.3405 3.92 38.3055 3.575 39.5555 3.575C40.3855 3.575 41.0905 3.735 41.6705 4.055C42.2505 4.365 42.6855 4.8 42.9755 5.36C43.2755 5.91 43.4255 6.54 43.4255 7.25V8H37.0955C37.1455 8.68 37.4305 9.19 37.9505 9.53C38.4805 9.86 39.1955 10.025 40.0955 10.025C40.5555 10.025 41.0205 9.985 41.4905 9.905C41.9605 9.815 42.3755 9.7 42.7355 9.56V10.775C42.4155 10.905 41.9905 11.01 41.4605 11.09C40.9405 11.18 40.4255 11.225 39.9155 11.225ZM42.0005 6.935C41.9805 6.255 41.7555 5.73 41.3255 5.36C40.9055 4.98 40.3055 4.79 39.5255 4.79C38.7655 4.79 38.1755 4.985 37.7555 5.375C37.3355 5.765 37.1155 6.285 37.0955 6.935H42.0005ZM44.7814 11H50.7364V12.32H44.7814V11ZM52.391 3.8H53.861V4.865C54.601 4.005 55.601 3.575 56.861 3.575C57.581 3.575 58.226 3.735 58.796 4.055C59.376 4.375 59.826 4.825 60.146 5.405C60.476 5.975 60.641 6.64 60.641 7.4C60.641 8.15 60.476 8.815 60.146 9.395C59.826 9.975 59.381 10.425 58.811 10.745C58.241 11.065 57.591 11.225 56.861 11.225C56.261 11.225 55.701 11.125 55.181 10.925C54.661 10.725 54.236 10.43 53.906 10.04V14.285H52.391V3.8ZM56.516 10.025C57.006 10.025 57.446 9.92 57.836 9.71C58.236 9.49 58.546 9.18 58.766 8.78C58.996 8.38 59.111 7.92 59.111 7.4C59.111 6.88 58.996 6.425 58.766 6.035C58.546 5.635 58.236 5.33 57.836 5.12C57.446 4.9 57.006 4.79 56.516 4.79C55.906 4.79 55.366 4.95 54.896 5.27C54.436 5.59 54.106 6.03 53.906 6.59V8.21C54.076 8.76 54.401 9.2 54.881 9.53C55.361 9.86 55.906 10.025 56.516 10.025ZM62.2934 3.8H63.7634V5.09C64.0634 4.65 64.4834 4.325 65.0234 4.115C65.5734 3.905 66.2084 3.8 66.9284 3.8V4.985C66.1584 4.985 65.4984 5.11 64.9484 5.36C64.3984 5.61 64.0184 6.005 63.8084 6.545V11H62.2934V3.8ZM71.8598 11.225C71.0498 11.225 70.3348 11.075 69.7148 10.775C69.1048 10.465 68.6248 10.025 68.2748 9.455C67.9348 8.875 67.7648 8.195 67.7648 7.415C67.7648 6.645 67.9348 5.97 68.2748 5.39C68.6148 4.81 69.0948 4.365 69.7148 4.055C70.3348 3.735 71.0498 3.575 71.8598 3.575C72.6698 3.575 73.3848 3.735 74.0048 4.055C74.6248 4.365 75.1048 4.81 75.4448 5.39C75.7948 5.97 75.9698 6.645 75.9698 7.415C75.9698 8.195 75.7948 8.875 75.4448 9.455C75.1048 10.025 74.6248 10.465 74.0048 10.775C73.3848 11.075 72.6698 11.225 71.8598 11.225ZM71.8598 10.025C72.6398 10.025 73.2598 9.785 73.7198 9.305C74.1798 8.825 74.4098 8.195 74.4098 7.415C74.4098 6.605 74.1798 5.965 73.7198 5.495C73.2598 5.025 72.6398 4.79 71.8598 4.79C71.0798 4.79 70.4598 5.025 69.9998 5.495C69.5398 5.965 69.3098 6.605 69.3098 7.415C69.3098 8.195 69.5398 8.825 69.9998 9.305C70.4598 9.785 71.0798 10.025 71.8598 10.025ZM78.2959 2.39C78.0359 2.39 77.8209 2.305 77.6509 2.135C77.4809 1.965 77.3959 1.755 77.3959 1.505C77.3959 1.255 77.4809 1.045 77.6509 0.875C77.8309 0.705 78.0459 0.62 78.2959 0.62C78.5459 0.62 78.7559 0.705 78.9259 0.875C79.1059 1.045 79.1959 1.255 79.1959 1.505C79.1959 1.755 79.1059 1.965 78.9259 2.135C78.7559 2.305 78.5459 2.39 78.2959 2.39ZM76.5109 14.465C76.0609 14.465 75.6809 14.41 75.3709 14.3V13.055C75.6309 13.175 75.9309 13.235 76.2709 13.235C76.7209 13.235 77.0409 13.125 77.2309 12.905C77.4309 12.695 77.5309 12.35 77.5309 11.87V3.8H79.0609V11.975C79.0609 12.805 78.8309 13.425 78.3709 13.835C77.9109 14.255 77.2909 14.465 76.5109 14.465ZM85.1059 11.225C83.7759 11.225 82.7309 10.895 81.9709 10.235C81.2209 9.565 80.8459 8.625 80.8459 7.415C80.8459 6.235 81.1809 5.3 81.8509 4.61C82.5309 3.92 83.4959 3.575 84.7459 3.575C85.5759 3.575 86.2809 3.735 86.8609 4.055C87.4409 4.365 87.8759 4.8 88.1659 5.36C88.4659 5.91 88.6159 6.54 88.6159 7.25V8H82.2859C82.3359 8.68 82.6209 9.19 83.1409 9.53C83.6709 9.86 84.3859 10.025 85.2859 10.025C85.7459 10.025 86.2109 9.985 86.6809 9.905C87.1509 9.815 87.5659 9.7 87.9259 9.56V10.775C87.6059 10.905 87.1809 11.01 86.6509 11.09C86.1309 11.18 85.6159 11.225 85.1059 11.225ZM87.1909 6.935C87.1709 6.255 86.9459 5.73 86.5159 5.36C86.0959 4.98 85.4959 4.79 84.7159 4.79C83.9559 4.79 83.3659 4.985 82.9459 5.375C82.5259 5.765 82.3059 6.285 82.2859 6.935H87.1909ZM93.0469 11.225C92.3169 11.225 91.7519 11.015 91.3519 10.595C90.9619 10.175 90.7669 9.58 90.7669 8.81V4.97H89.6719V3.8H90.7669V1.64H92.2969V3.8H94.0669V4.97H92.2969V8.705C92.2969 9.185 92.3869 9.525 92.5669 9.725C92.7569 9.925 93.0969 10.025 93.5869 10.025C93.8769 10.025 94.1669 9.96 94.4569 9.83V11.03C94.0769 11.16 93.6069 11.225 93.0469 11.225ZM99.604 11.225C98.794 11.225 98.079 11.075 97.459 10.775C96.849 10.465 96.369 10.025 96.019 9.455C95.679 8.875 95.509 8.195 95.509 7.415C95.509 6.645 95.679 5.97 96.019 5.39C96.359 4.81 96.839 4.365 97.459 4.055C98.079 3.735 98.794 3.575 99.604 3.575C100.414 3.575 101.129 3.735 101.749 4.055C102.369 4.365 102.849 4.81 103.189 5.39C103.539 5.97 103.714 6.645 103.714 7.415C103.714 8.195 103.539 8.875 103.189 9.455C102.849 10.025 102.369 10.465 101.749 10.775C101.129 11.075 100.414 11.225 99.604 11.225ZM99.604 10.025C100.384 10.025 101.004 9.785 101.464 9.305C101.924 8.825 102.154 8.195 102.154 7.415C102.154 6.605 101.924 5.965 101.464 5.495C101.004 5.025 100.384 4.79 99.604 4.79C98.824 4.79 98.204 5.025 97.744 5.495C97.284 5.965 97.054 6.605 97.054 7.415C97.054 8.195 97.284 8.825 97.744 9.305C98.204 9.785 98.824 10.025 99.604 10.025ZM105.765 11C105.565 11 105.395 10.935 105.255 10.805C105.125 10.665 105.06 10.495 105.06 10.295C105.06 10.095 105.125 9.925 105.255 9.785C105.395 9.645 105.565 9.575 105.765 9.575C105.965 9.575 106.135 9.645 106.275 9.785C106.415 9.925 106.485 10.095 106.485 10.295C106.485 10.495 106.415 10.665 106.275 10.805C106.135 10.935 105.965 11 105.765 11ZM108.128 3.8H109.598V4.865C110.338 4.005 111.338 3.575 112.598 3.575C113.318 3.575 113.963 3.735 114.533 4.055C115.113 4.375 115.563 4.825 115.883 5.405C116.213 5.975 116.378 6.64 116.378 7.4C116.378 8.15 116.213 8.815 115.883 9.395C115.563 9.975 115.118 10.425 114.548 10.745C113.978 11.065 113.328 11.225 112.598 11.225C111.998 11.225 111.438 11.125 110.918 10.925C110.398 10.725 109.973 10.43 109.643 10.04V14.285H108.128V3.8ZM112.253 10.025C112.743 10.025 113.183 9.92 113.573 9.71C113.973 9.49 114.283 9.18 114.503 8.78C114.733 8.38 114.848 7.92 114.848 7.4C114.848 6.88 114.733 6.425 114.503 6.035C114.283 5.635 113.973 5.33 113.573 5.12C113.183 4.9 112.743 4.79 112.253 4.79C111.643 4.79 111.103 4.95 110.633 5.27C110.173 5.59 109.843 6.03 109.643 6.59V8.21C109.813 8.76 110.138 9.2 110.618 9.53C111.098 9.86 111.643 10.025 112.253 10.025ZM118.031 3.8H119.501V4.835C119.841 4.405 120.256 4.09 120.746 3.89C121.246 3.68 121.766 3.575 122.306 3.575C123.266 3.575 123.981 3.83 124.451 4.34C124.921 4.85 125.156 5.535 125.156 6.395V11H123.641V6.545C123.641 5.375 123.081 4.79 121.961 4.79C121.481 4.79 121.031 4.905 120.611 5.135C120.201 5.355 119.846 5.695 119.546 6.155V11H118.031V3.8ZM130.79 14.45C130.3 14.45 129.82 14.41 129.35 14.33C128.89 14.25 128.5 14.135 128.18 13.985V12.74C128.93 13.08 129.8 13.25 130.79 13.25C131.72 13.25 132.395 13.045 132.815 12.635C133.245 12.235 133.46 11.625 133.46 10.805V10.04C132.8 10.83 131.83 11.225 130.55 11.225C129.82 11.225 129.165 11.065 128.585 10.745C128.005 10.425 127.55 9.975 127.22 9.395C126.89 8.815 126.725 8.15 126.725 7.4C126.725 6.64 126.885 5.975 127.205 5.405C127.535 4.825 127.985 4.375 128.555 4.055C129.135 3.735 129.785 3.575 130.505 3.575C131.175 3.575 131.74 3.675 132.2 3.875C132.67 4.065 133.105 4.385 133.505 4.835V3.8H134.975V10.64C134.975 11.87 134.63 12.81 133.94 13.46C133.26 14.12 132.21 14.45 130.79 14.45ZM130.85 10.025C131.47 10.025 132.015 9.86 132.485 9.53C132.965 9.2 133.29 8.76 133.46 8.21V6.59C133.27 6.03 132.94 5.59 132.47 5.27C132.01 4.95 131.47 4.79 130.85 4.79C130.36 4.79 129.915 4.9 129.515 5.12C129.125 5.33 128.815 5.635 128.585 6.035C128.365 6.435 128.255 6.89 128.255 7.4C128.255 7.92 128.365 8.38 128.585 8.78C128.815 9.17 129.125 9.475 129.515 9.695C129.915 9.915 130.36 10.025 130.85 10.025Z" fill="#888888"/>
</svg>
